<svg id="Layer_1" data-name="Layer 1" xmlns="http://www.w3.org/2000/svg" viewBox="0 0 243.11 138.86"><defs><style>.cls-1{fill:#210021;}.cls-2{fill:#e40571;}</style></defs><title>ETQ_7449_RubineRed_CMYK-2export</title><path class="cls-1" d="M35.73,27.35C16.17,27.35,0,37.21,0,60.16v19.4c0,21.41,16.17,32,36.19,32,13.55,0,23.56-4.16,31.42-10.17C69,100.35,69,99,68.07,97.58L60.06,87a2.18,2.18,0,0,0-3.54-.62A37.89,37.89,0,0,1,37,91.88c-8.16,0-13.24-4-13.24-11.86V77.56H67.3c1.85,0,2.77-.92,2.77-2.62V60.16C70.07,36.9,54.67,27.35,35.73,27.35Zm11.7,35H23.72V59.08c0-8.47,4.77-12.17,11.86-12.17,6.93,0,11.85,3.85,11.85,12.17Z"/><path class="cls-1" d="M106.07,64.93c0-1.69-.93-2.62-2.77-2.62h-18c-1.85,0-2.78.93-2.78,2.62V82c0,19.71,12,29.41,29.88,29.41a57.65,57.65,0,0,0,9.7-.77c1.54-.31,2.16-1.54,2.16-3.08V92.5c0-1.85-.92-2.62-2.93-2.31-1.69.15-3.54.31-4.92.31-6.78,0-10.32-3.85-10.32-11.4Z"/><path class="cls-2" d="M200.74,33.05a99.47,99.47,0,0,0-32.5-5.7c-21.56,0-36.5,12.94-36.5,35V77.56c0,21,13.71,34,33.42,34A40,40,0,0,0,179.33,109v27.1c0,1.85.93,2.78,2.62,2.78h18.17a2.45,2.45,0,0,0,2.77-2.78v-100A3,3,0,0,0,200.74,33.05ZM179.33,88.5a21.5,21.5,0,0,1-10.78,2.61c-8.31,0-12.78-4.15-12.78-13.09V61.85c0-9.55,4.62-13.55,12.94-13.55A32.19,32.19,0,0,1,179.33,50Z"/><path class="cls-1" d="M120,37.34h-15.9V22.64c0-1.7-.92-2.62-2.77-2.62h-16c-1.85,0-2.78.92-2.78,2.62V54.75c0,1.69.93,2.62,2.78,2.62H120a2.47,2.47,0,0,0,2.77-2.62V40A2.47,2.47,0,0,0,120,37.34Z"/><path class="cls-1" d="M240.34,0H205.65a2.47,2.47,0,0,0-2.77,2.62V17.4A2.47,2.47,0,0,0,205.65,20h15.9V34.73c0,1.69.93,2.61,2.77,2.61h16c1.84,0,2.77-.92,2.77-2.61V2.62C243.11.92,242.18,0,240.34,0Z"/></svg>